<svg width="234" height="86" viewBox="0 0 234 86" fill="none" xmlns="http://www.w3.org/2000/svg">
<g id="Logo">
<path id="Earn Rid" d="M9.55 50.9C6.51667 50.9 4.21667 50.0667 2.65 48.4C1.11667 46.7333 0.35 44.6333 0.35 42.1C0.35 40.3 0.716667 38.5 1.45 36.7C2.21667 34.8667 3.3 33.2667 4.7 31.9C6.1 30.5333 7.73333 29.6167 9.6 29.15C8.56667 28.4167 7.8 27.5333 7.3 26.5C6.8 25.4333 6.55 24.3167 6.55 23.15C6.55 21.4167 7.01667 19.7167 7.95 18.05C8.91667 16.3833 10.2333 15.0333 11.9 14C13.6 12.9333 15.4667 12.4 17.5 12.4C19.6 12.4 21.3167 12.95 22.65 14.05C23.9833 15.15 24.65 16.6833 24.65 18.65C24.65 20.1167 24.2833 21.35 23.55 22.35C22.8167 23.35 21.95 23.85 20.95 23.85C20.05 23.85 19.2667 23.4 18.6 22.5C19.2 22.3 19.7167 21.75 20.15 20.85C20.5833 19.95 20.8 19.05 20.8 18.15C20.8 17.1833 20.5333 16.4833 20 16.05C19.4667 15.5833 18.8167 15.35 18.05 15.35C17.0833 15.35 16.2 15.7 15.4 16.4C14.6333 17.0667 14.0333 17.95 13.6 19.05C13.1667 20.1167 12.95 21.2333 12.95 22.4C12.95 24 13.3667 25.4167 14.2 26.65C15.0333 27.85 16.3 28.6667 18 29.1C16.3 29.4667 14.7667 30.3 13.4 31.6C12.0333 32.9 10.9667 34.4167 10.2 36.15C9.43333 37.85 9.05 39.4833 9.05 41.05C9.05 42.55 9.43333 43.7667 10.2 44.7C11 45.6333 12.2 46.1 13.8 46.1C15.4667 46.1 17.2 45.65 19 44.75C20.8333 43.8167 22.1833 42.5667 23.05 41L24.2 41.5C22.9 44.3667 20.9 46.65 18.2 48.35C15.5 50.05 12.6167 50.9 9.55 50.9ZM28.9492 50.3C27.0492 50.3 25.4659 49.65 24.1992 48.35C22.9326 47.05 22.2992 45.0167 22.2992 42.25C22.2992 39.7833 22.7826 37.2 23.7492 34.5C24.7492 31.7667 26.2159 29.4667 28.1492 27.6C30.1159 25.7 32.4492 24.75 35.1492 24.75C36.5159 24.75 37.5326 24.9833 38.1992 25.45C38.8659 25.9167 39.1992 26.5333 39.1992 27.3V27.65L39.7492 25H46.9492L43.3492 42C43.2159 42.5 43.1492 43.0333 43.1492 43.6C43.1492 45.0333 43.8326 45.75 45.1992 45.75C46.1326 45.75 46.9326 45.3167 47.5992 44.45C48.2992 43.5833 48.8492 42.45 49.2492 41.05H51.3492C50.1159 44.65 48.5826 47.1 46.7492 48.4C44.9492 49.6667 43.1326 50.3 41.2992 50.3C39.8992 50.3 38.7659 49.9167 37.8992 49.15C37.0659 48.35 36.5659 47.2 36.3992 45.7C35.4326 47.0667 34.3492 48.1833 33.1492 49.05C31.9826 49.8833 30.5826 50.3 28.9492 50.3ZM32.1992 45.45C33.0326 45.45 33.8492 45.0667 34.6492 44.3C35.4826 43.5 36.0492 42.4167 36.3492 41.05L38.7492 29.75C38.7492 29.3167 38.5826 28.9 38.2492 28.5C37.9159 28.0667 37.3992 27.85 36.6992 27.85C35.3659 27.85 34.1659 28.6333 33.0992 30.2C32.0326 31.7333 31.1992 33.6 30.5992 35.8C29.9992 37.9667 29.6992 39.8833 29.6992 41.55C29.6992 43.2167 29.9326 44.2833 30.3992 44.75C30.8992 45.2167 31.4992 45.45 32.1992 45.45ZM52.6676 25H59.8676L59.2176 28.1C60.3509 27.1 61.3676 26.3333 62.2676 25.8C63.2009 25.2667 64.2009 25 65.2676 25C66.3342 25 67.1676 25.3667 67.7676 26.1C68.4009 26.8333 68.7176 27.7167 68.7176 28.75C68.7176 29.7167 68.4009 30.5667 67.7676 31.3C67.1342 32.0333 66.2509 32.4 65.1176 32.4C64.3842 32.4 63.8842 32.2333 63.6176 31.9C63.3842 31.5333 63.2009 31.0167 63.0676 30.35C62.9676 29.9167 62.8676 29.6 62.7676 29.4C62.6676 29.2 62.4842 29.1 62.2176 29.1C61.5176 29.1 60.9176 29.25 60.4176 29.55C59.9509 29.8167 59.3342 30.3 58.5676 31L54.5676 50H47.3676L52.6676 25ZM85.2664 50.3C83.4997 50.3 82.2164 49.7667 81.4164 48.7C80.6164 47.6333 80.2164 46.2833 80.2164 44.65C80.2164 43.95 80.2997 43.1667 80.4664 42.3C80.6331 41.4 80.7997 40.5333 80.9664 39.7C81.1664 38.8667 81.2997 38.3333 81.3664 38.1C81.6331 36.9333 81.8831 35.7833 82.1164 34.65C82.3497 33.5167 82.4664 32.6 82.4664 31.9C82.4664 30.2 81.8664 29.35 80.6664 29.35C79.7997 29.35 79.0331 29.7833 78.3664 30.65C77.6997 31.4833 77.1664 32.5833 76.7664 33.95L73.3664 50H66.1664L71.4664 25H78.6664L78.1164 27.6C79.7831 25.7333 81.7331 24.8 83.9664 24.8C85.6664 24.8 87.0164 25.2667 88.0164 26.2C89.0164 27.1333 89.5164 28.55 89.5164 30.45C89.5164 31.4167 89.3997 32.5 89.1664 33.7C88.9331 34.8667 88.5997 36.3 88.1664 38C87.8997 39.0333 87.6497 40.05 87.4164 41.05C87.2164 42.0167 87.1164 42.7833 87.1164 43.35C87.1164 44.0167 87.2664 44.5333 87.5664 44.9C87.8664 45.2667 88.3831 45.45 89.1164 45.45C89.9164 45.45 90.4664 45.35 90.7664 45.15C90.5664 46.85 89.9497 48.1333 88.9164 49C87.9164 49.8667 86.6997 50.3 85.2664 50.3ZM123.411 50.85C120.811 50.85 119.511 49.7333 119.511 47.5C119.511 46.7667 119.611 45.9333 119.811 45C120.045 44.0333 120.361 42.8 120.761 41.3C121.228 39.7333 121.578 38.4 121.811 37.3C122.045 36.2 122.161 35.2167 122.161 34.35C122.161 32.0833 121.161 30.95 119.161 30.95C118.628 30.95 118.078 31.0167 117.511 31.15L113.511 50H106.311L113.111 18.2L120.511 17.2L118.061 28.75H118.461C119.761 28.75 120.961 28.3 122.061 27.4C123.161 26.5 124.011 25.3833 124.611 24.05C125.245 22.6833 125.561 21.35 125.561 20.05C125.561 18.5167 125.095 17.2667 124.161 16.3C123.261 15.3 121.895 14.8 120.061 14.8C117.361 14.8 114.995 15.2833 112.961 16.25C110.928 17.2167 109.345 18.6167 108.211 20.45C107.111 22.2833 106.561 24.45 106.561 26.95C106.561 28.1833 106.678 29.05 106.911 29.55C107.145 30.0167 107.261 30.2833 107.261 30.35C105.461 30.35 104.111 29.9833 103.211 29.25C102.345 28.4833 101.911 27.2333 101.911 25.5C101.911 23.3667 102.778 21.3 104.511 19.3C106.278 17.2667 108.528 15.6333 111.261 14.4C113.995 13.1333 116.728 12.5 119.461 12.5C121.961 12.5 124.061 12.8667 125.761 13.6C127.461 14.3333 128.728 15.3167 129.561 16.55C130.395 17.75 130.811 19.0667 130.811 20.5C130.811 22.0667 130.328 23.6333 129.361 25.2C128.395 26.7667 127.078 28.05 125.411 29.05C126.678 29.4167 127.561 30.0333 128.061 30.9C128.595 31.7333 128.861 32.7833 128.861 34.05C128.861 35.0167 128.745 36.05 128.511 37.15C128.278 38.2167 127.945 39.55 127.511 41.15C127.245 42.1833 126.995 43.2 126.761 44.2C126.528 45.2 126.411 46.0333 126.411 46.7C126.411 47.4667 126.578 48.15 126.911 48.75C127.278 49.35 127.761 49.7667 128.361 50C126.328 50.5667 124.678 50.85 123.411 50.85ZM139.991 22.3C138.891 22.3 137.957 21.9167 137.191 21.15C136.424 20.3833 136.041 19.45 136.041 18.35C136.041 17.25 136.424 16.3167 137.191 15.55C137.957 14.75 138.891 14.35 139.991 14.35C141.091 14.35 142.024 14.75 142.791 15.55C143.591 16.3167 143.991 17.25 143.991 18.35C143.991 19.45 143.591 20.3833 142.791 21.15C142.024 21.9167 141.091 22.3 139.991 22.3ZM136.591 50.3C134.991 50.3 133.691 49.8 132.691 48.8C131.724 47.8 131.241 46.3 131.241 44.3C131.241 43.4667 131.374 42.3833 131.641 41.05L135.041 25H142.241L138.641 42C138.507 42.5 138.441 43.0333 138.441 43.6C138.441 44.2667 138.591 44.75 138.891 45.05C139.224 45.3167 139.757 45.45 140.491 45.45C141.457 45.45 142.357 45.05 143.191 44.25C144.024 43.4167 144.624 42.35 144.991 41.05H147.091C145.857 44.65 144.274 47.1 142.341 48.4C140.407 49.6667 138.491 50.3 136.591 50.3ZM150.971 50.3C149.071 50.3 147.487 49.65 146.221 48.35C144.954 47.05 144.321 45.0167 144.321 42.25C144.321 39.7833 144.804 37.2 145.771 34.5C146.771 31.7667 148.237 29.4667 150.171 27.6C152.137 25.7 154.471 24.75 157.171 24.75C158.537 24.75 159.554 24.9833 160.221 25.45C160.887 25.9167 161.221 26.5333 161.221 27.3V27.5L163.671 16L171.071 15L165.321 42C165.187 42.5 165.121 42.9833 165.121 43.45C165.121 44.7833 165.804 45.45 167.171 45.45C167.771 45.45 168.304 45.35 168.771 45.15C168.637 46.8167 168.037 48.1 166.971 49C165.937 49.8667 164.704 50.3 163.271 50.3C161.937 50.3 160.804 49.9667 159.871 49.3C158.971 48.6 158.371 47.55 158.071 46.15C156.071 48.9167 153.704 50.3 150.971 50.3ZM154.221 45.45C154.954 45.45 155.687 45.1333 156.421 44.5C157.187 43.8667 157.754 42.9833 158.121 41.85L158.321 41.05L160.771 29.6C160.471 28.4333 159.787 27.85 158.721 27.85C157.387 27.85 156.187 28.6333 155.121 30.2C154.054 31.7333 153.221 33.6 152.621 35.8C152.021 37.9667 151.721 39.8833 151.721 41.55C151.721 43.2167 151.954 44.2833 152.421 44.75C152.921 45.2167 153.521 45.45 154.221 45.45Z" fill="#0E6154"/>
<path id="of it" d="M161.65 70.1C160.417 70.1 159.442 69.7833 158.725 69.15C158.008 68.5167 157.65 67.5167 157.65 66.15C157.65 65.0167 157.883 63.7583 158.35 62.375C158.817 60.9917 159.567 59.8 160.6 58.8C161.633 57.7833 162.933 57.275 164.5 57.275C166.633 57.275 167.7 58.6083 167.7 61.275V61.3C167.75 61.3167 167.842 61.325 167.975 61.325C168.525 61.325 169.158 61.1833 169.875 60.9C170.592 60.6 171.242 60.2417 171.825 59.825L172.05 60.5C171.567 61.0167 170.933 61.4583 170.15 61.825C169.383 62.175 168.542 62.425 167.625 62.575C167.492 64.0917 167.15 65.4167 166.6 66.55C166.05 67.6833 165.342 68.5583 164.475 69.175C163.608 69.7917 162.667 70.1 161.65 70.1ZM162.65 67.85C163.05 67.85 163.45 67.625 163.85 67.175C164.25 66.7083 164.6 66.0833 164.9 65.3C165.2 64.5 165.417 63.6167 165.55 62.65C165.1 62.55 164.875 62.2 164.875 61.6C164.875 60.9167 165.133 60.4667 165.65 60.25C165.617 59.7 165.533 59.325 165.4 59.125C165.267 58.9083 165.033 58.8 164.7 58.8C164.15 58.8 163.617 59.2 163.1 60C162.583 60.8 162.167 61.7583 161.85 62.875C161.533 63.9917 161.375 64.975 161.375 65.825C161.375 66.625 161.467 67.1667 161.65 67.45C161.833 67.7167 162.167 67.85 162.65 67.85ZM166.736 76.25C165.953 76.25 165.27 75.9917 164.686 75.475C164.086 74.975 163.786 74.3333 163.786 73.55C163.786 72.8333 163.97 72.2417 164.336 71.775C164.703 71.3083 165.178 70.9333 165.761 70.65C166.345 70.3833 167.12 70.1 168.086 69.8L171.111 55.525C171.445 53.925 172.028 52.8167 172.861 52.2C173.711 51.5833 174.645 51.275 175.661 51.275C176.445 51.275 177.128 51.5333 177.711 52.05C178.311 52.55 178.611 53.1917 178.611 53.975C178.611 54.3583 178.586 54.7 178.536 55H177.361C177.395 54.6333 177.411 54.4083 177.411 54.325C177.411 54.0583 177.32 53.85 177.136 53.7C176.953 53.55 176.728 53.475 176.461 53.475C176.111 53.475 175.77 53.6333 175.436 53.95C175.103 54.25 174.861 54.775 174.711 55.525L174.286 57.5H176.111L175.936 58.5H174.086L171.211 72C170.878 73.6167 170.303 74.725 169.486 75.325C168.67 75.9417 167.753 76.25 166.736 76.25ZM166.161 74.025C166.828 74.025 167.303 73.375 167.586 72.075L167.911 70.625C167.028 70.925 166.353 71.2667 165.886 71.65C165.403 72.05 165.161 72.5667 165.161 73.2C165.161 73.4 165.261 73.5833 165.461 73.75C165.661 73.9333 165.895 74.025 166.161 74.025ZM185.246 56.15C184.696 56.15 184.23 55.9583 183.846 55.575C183.463 55.1917 183.271 54.725 183.271 54.175C183.271 53.625 183.463 53.1583 183.846 52.775C184.23 52.375 184.696 52.175 185.246 52.175C185.796 52.175 186.263 52.375 186.646 52.775C187.046 53.1583 187.246 53.625 187.246 54.175C187.246 54.725 187.046 55.1917 186.646 55.575C186.263 55.9583 185.796 56.15 185.246 56.15ZM183.546 70.15C182.746 70.15 182.096 69.9 181.596 69.4C181.113 68.9 180.871 68.15 180.871 67.15C180.871 66.7333 180.938 66.1917 181.071 65.525L182.771 57.5H186.371L184.571 66C184.505 66.25 184.471 66.5167 184.471 66.8C184.471 67.1333 184.546 67.375 184.696 67.525C184.863 67.6583 185.13 67.725 185.496 67.725C185.98 67.725 186.43 67.525 186.846 67.125C187.263 66.7083 187.563 66.175 187.746 65.525H188.796C188.18 67.325 187.388 68.55 186.421 69.2C185.455 69.8333 184.496 70.15 183.546 70.15ZM190.086 70.15C189.236 70.15 188.603 69.8917 188.186 69.375C187.786 68.8583 187.586 68.175 187.586 67.325C187.586 66.8917 187.636 66.45 187.736 66L189.336 58.5H188.511L188.711 57.5H189.536L190.286 54.05L193.986 53.55C193.836 54.1833 193.753 54.5583 193.736 54.675C193.62 55.1417 193.42 56.0833 193.136 57.5H194.636L194.436 58.5H192.936L191.336 66C191.253 66.3667 191.211 66.6583 191.211 66.875C191.211 67.475 191.503 67.775 192.086 67.775C192.386 67.775 192.603 67.75 192.736 67.7C192.403 68.6667 192.011 69.3167 191.561 69.65C191.111 69.9833 190.62 70.15 190.086 70.15Z" fill="#0E6154"/>
</g>
</svg>
